<svg xmlns="http://www.w3.org/2000/svg" width="29.897" height="29.5" viewBox="0 0 29.897 29.5">
  <g id="Group_43716" data-name="Group 43716" transform="translate(0.355 0.356)">
    <g id="Group_43715" data-name="Group 43715" transform="translate(0.395 0.394)">
      <path id="Path_88185" data-name="Path 88185" d="M42.273,66.849V62.181A2.487,2.487,0,0,0,39.642,59.9H37.99L36,62.841,34.06,59.9H32.355a2.458,2.458,0,0,0-2.6,2.285v4.668" transform="translate(-21.8 -42.06)" fill="none" stroke="#2F3754" stroke-linecap="round" stroke-linejoin="round" stroke-width="1.5"/>
      <path id="Path_88186" data-name="Path 88186" d="M47.357,29.116a2.979,2.979,0,1,1-2.979-2.979A2.979,2.979,0,0,1,47.357,29.116Z" transform="translate(-30.179 -17.607)" fill="none" stroke="#2F3754" stroke-linecap="round" stroke-linejoin="round" stroke-width="1.5"/>
      <path id="Path_88187" data-name="Path 88187" d="M81.107,50.271V45.022a2.164,2.164,0,0,0-2.289-1.988H77.382L75.649,45.6" transform="translate(-54.935 -31.368)" fill="none" stroke="#2F3754" stroke-linecap="round" stroke-linejoin="round" stroke-width="1.5"/>
      <path id="Path_88188" data-name="Path 88188" d="M71.589,16.259A2.592,2.592,0,1,1,69,13.667,2.592,2.592,0,0,1,71.589,16.259Z" transform="translate(-48.235 -10.115)" fill="none" stroke="#2F3754" stroke-linecap="round" stroke-linejoin="round" stroke-width="1.5"/>
      <path id="Path_88189" data-name="Path 88189" d="M8.931,50.271V45.022a2.164,2.164,0,0,1,2.289-1.988h1.437L14.389,45.6" transform="translate(-6.707 -31.368)" fill="none" stroke="#2F3754" stroke-linecap="round" stroke-linejoin="round" stroke-width="1.5"/>
      <path id="Path_88190" data-name="Path 88190" d="M19.155,16.259a2.592,2.592,0,1,0,2.592-2.592A2.592,2.592,0,0,0,19.155,16.259Z" transform="translate(-14.112 -10.115)" fill="none" stroke="#2F3754" stroke-linecap="round" stroke-linejoin="round" stroke-width="1.5"/>
      <path id="Path_88191" data-name="Path 88191" d="M48.8,3.059A2.06,2.06,0,1,1,46.737,1,2.06,2.06,0,0,1,48.8,3.059Z" transform="translate(-32.539 -0.999)" fill="none" stroke="#2F3754" stroke-linecap="round" stroke-linejoin="round" stroke-width="1.5"/>
      <path id="Path_88192" data-name="Path 88192" d="M27.786,79.937c1.029.574,1.611,1.228,1.611,1.92C29.4,84.147,23.04,86,15.2,86S1,84.147,1,81.857c0-.7.594-1.36,1.643-1.938" transform="translate(-1 -58.004)" fill="none" stroke="#2F3754" stroke-linecap="round" stroke-linejoin="round" stroke-width="1.5"/>
    </g>
  </g>
</svg>
