<svg id="Component_4_220" data-name="Component 4 – 220" xmlns="http://www.w3.org/2000/svg" xmlns:xlink="http://www.w3.org/1999/xlink" width="39" height="39" viewBox="0 0 39 39">
  <defs>
    <clipPath id="clip-path">
      <rect id="Rectangle_63857" data-name="Rectangle 63857" width="20.5" height="21.5" fill="none" stroke="#ED4542" stroke-width="1"/>
    </clipPath>
  </defs>
  <g id="Group_19412" data-name="Group 19412" transform="translate(-1649 -405)">
    <path id="Path_24329" data-name="Path 24329" d="M19.5,0A19.5,19.5,0,1,1,0,19.5,19.5,19.5,0,0,1,19.5,0Z" transform="translate(1649 405)" fill="#ED4542" opacity="0.1"/>
  </g>
  <g id="Group_44303" data-name="Group 44303" transform="translate(9 9)">
    <g id="Group_44302" data-name="Group 44302" clip-path="url(#clip-path)">
      <path id="Path_88420" data-name="Path 88420" d="M13.25,14.75v-2c0-1.651-2.611-2.5-4-2.5s-4,.848-4,2.5v2" fill="none" stroke="#ED4542" stroke-linecap="round" stroke-linejoin="round" stroke-width="1.5"/>
      <path id="Path_88421" data-name="Path 88421" d="M9.25,8.75a1.917,1.917,0,0,0,2-2v-1a1.917,1.917,0,0,0-2-2,1.917,1.917,0,0,0-2,2v1A1.917,1.917,0,0,0,9.25,8.75Z" fill="none" stroke="#ED4542" stroke-linecap="round" stroke-linejoin="round" stroke-width="1.5"/>
      <path id="Path_88422" data-name="Path 88422" d="M17.75,9.25A8.5,8.5,0,1,1,9.25.75,8.478,8.478,0,0,1,17.75,9.25Z" fill="none" stroke="#ED4542" stroke-linecap="round" stroke-linejoin="round" stroke-width="1.5"/>
      <line id="Line_285" data-name="Line 285" x1="4.744" y1="5.244" transform="translate(15.006 15.506)" fill="none" stroke="#ED4542" stroke-linecap="round" stroke-linejoin="round" stroke-width="1.5"/>
    </g>
  </g>
</svg>
