<svg id="Component_3_44" data-name="Component 3 – 44" xmlns="http://www.w3.org/2000/svg" width="39" height="39" viewBox="0 0 39 39">
  <circle id="Ellipse_31" data-name="Ellipse 31" cx="19.5" cy="19.5" r="19.5" fill="#ED4542" opacity="1"/>
  <g id="Group_44072" data-name="Group 44072" transform="translate(8 12)">
    <g id="Group_44073" data-name="Group 44073" transform="translate(1.001 1)">
      <path id="Path_88327" data-name="Path 88327" d="M15.142,4.585a3.606,3.606,0,0,0-1.793-3.133A3.475,3.475,0,0,0,11.664,1H4.8c-.172,0-.343,0-.515.01a3.609,3.609,0,0,0-1.768.62A3.517,3.517,0,0,0,1,4.494c0,.512,0,1.023,0,1.535v4.362a4.048,4.048,0,0,0,.132,1.088,3.6,3.6,0,0,0,.941,1.591,3.556,3.556,0,0,0,2.518,1h6.441a5,5,0,0,0,1.794-.219A3.53,3.53,0,0,0,15.1,11.105a10.463,10.463,0,0,0,.044-1.526V4.585" transform="translate(-1.001 -1)" fill="none" stroke="#fff" stroke-miterlimit="10" stroke-width="2"/>
      <path id="Path_88328" data-name="Path 88328" d="M14.244,10.251,16.6,11.662l1.16.7a1.41,1.41,0,0,0,1.563.125,1.287,1.287,0,0,0,.459-.95c.01-.191,0-.385,0-.577V3.495a1.168,1.168,0,0,0-.646-1.228,1.469,1.469,0,0,0-1.131.174c-.263.145-.518.305-.776.458q-1.406.83-2.814,1.662c-.152.089-.313.16-.324.368,0,.075,0,.152,0,.227V9.983A.317.317,0,0,0,14.244,10.251Z" transform="translate(1.098 -0.805)" fill="none" stroke="#fff" stroke-miterlimit="10" stroke-width="2"/>
    </g>
  </g>
</svg>
