<svg id="Component_4_380" data-name="Component 4 – 380" xmlns="http://www.w3.org/2000/svg" width="39" height="39" viewBox="0 0 39 39">
  <g id="Group_19412" data-name="Group 19412" transform="translate(-1649 -405)">
    <path id="Path_24329" data-name="Path 24329" d="M19.5,0A19.5,19.5,0,1,1,0,19.5,19.5,19.5,0,0,1,19.5,0Z" transform="translate(1649 405)" fill="#ED4542" opacity="0.1"/>
  </g>
  <g id="Group_44335" data-name="Group 44335" transform="translate(9.098 10)">
    <g id="Group_44337" data-name="Group 44337">
      <path id="Path_88433" data-name="Path 88433" d="M16.069,20a.4.4,0,0,1-.4-.4V12.927a.4.4,0,0,1,.8,0V19.6a.4.4,0,0,1-.4.4" fill="#ED4542" stroke="#ED4542" stroke-width="0.5"/>
      <path id="Path_88434" data-name="Path 88434" d="M19.406,16.663H12.733a.4.4,0,0,1,0-.8h6.673a.4.4,0,0,1,0,.8" fill="#ED4542" stroke="#ED4542" stroke-width="0.5"/>
      <path id="Path_88435" data-name="Path 88435" d="M10.709,18.627H2.8a2.806,2.806,0,0,1-2.8-2.8V5.321a2.806,2.806,0,0,1,2.8-2.8H15.42a2.806,2.806,0,0,1,2.8,2.8V11.29a.4.4,0,0,1-.8,0V5.321a2.005,2.005,0,0,0-2-2H2.8a2.005,2.005,0,0,0-2,2v10.5a2.005,2.005,0,0,0,2,2h7.9a.4.4,0,1,1,0,.8" fill="#ED4542" stroke="#ED4542" stroke-width="0.5"/>
      <path id="Path_88436" data-name="Path 88436" d="M17.824,7.334H.4a.4.4,0,0,1,0-.8H17.824a.4.4,0,1,1,0,.8" fill="#ED4542" stroke="#ED4542" stroke-width="0.5"/>
      <path id="Path_88437" data-name="Path 88437" d="M5.627,3.317a.4.4,0,0,1-.4-.4V.4a.4.4,0,1,1,.8,0V2.917a.4.4,0,0,1-.4.4" fill="#ED4542" stroke="#ED4542" stroke-width="0.5"/>
      <path id="Path_88438" data-name="Path 88438" d="M9.112,3.317a.4.4,0,0,1-.4-.4V.4a.4.4,0,0,1,.8,0V2.917a.4.4,0,0,1-.4.4" fill="#ED4542" stroke="#ED4542" stroke-width="0.5"/>
      <path id="Path_88439" data-name="Path 88439" d="M12.6,3.317a.4.4,0,0,1-.4-.4V.4a.4.4,0,0,1,.8,0V2.917a.4.4,0,0,1-.4.4" fill="#ED4542" stroke="#ED4542" stroke-width="0.5"/>
    </g>
  </g>
</svg>
