<svg xmlns="http://www.w3.org/2000/svg" width="60" height="60" viewBox="0 0 60 60">
  <g id="Group_43500" data-name="Group 43500" transform="translate(-411 -237)">
    <circle id="Ellipse_305" data-name="Ellipse 305" cx="30" cy="30" r="30" transform="translate(411 237)" fill="none"/>
    <g id="Group_43869" data-name="Group 43869" transform="translate(421.465 247.46)">
      <g id="Group_43870" data-name="Group 43870" transform="translate(0.699 0.699)">
        <circle id="Ellipse_323" data-name="Ellipse 323" cx="8.195" cy="8.195" r="8.195" transform="translate(5.625)" fill="none" stroke="#fff" stroke-linecap="round" stroke-linejoin="round" stroke-width="2"/>
        <circle id="Ellipse_324" data-name="Ellipse 324" cx="8.924" cy="8.924" r="8.924" transform="translate(19.42 19.521)" fill="none" stroke="#fff" stroke-linecap="round" stroke-linejoin="round" stroke-width="2"/>
        <path id="Path_88258" data-name="Path 88258" d="M37.459,318.248a16.369,16.369,0,0,0-8.638-2.41,15.485,15.485,0,0,0-13.244,6.96,3.812,3.812,0,0,0,1.573,5.444,26.926,26.926,0,0,0,11.671,2.53,29.664,29.664,0,0,0,3.545-.211" transform="translate(-15 -299.447)" fill="none" stroke="#fff" stroke-linecap="round" stroke-linejoin="round" stroke-width="2"/>
        <line id="Line_223" data-name="Line 223" y2="8.833" transform="translate(28.344 24.029)" fill="none" stroke="#fff" stroke-linecap="round" stroke-linejoin="round" stroke-width="2"/>
        <line id="Line_224" data-name="Line 224" x1="8.833" transform="translate(23.927 28.445)" fill="none" stroke="#fff" stroke-linecap="round" stroke-linejoin="round" stroke-width="2"/>
      </g>
    </g>
  </g>
</svg>
